#tb 0: 1/44100
#media_type 0: audio
#codec_id 0: pcm_s16le
#sample_rate 0: 44100
#channel_layout_name 0: mono
0,          0,          0,     1152,     2304, 0xe81b273e
0,       1152,       1152,     1152,     2304, 0x63cc7c22
0,       2304,       2304,     1152,     2304, 0xda3b8096
0,       3456,       3456,     1152,     2304, 0xd0ca9235
0,       4608,       4608,     1152,     2304, 0x46c26ada
0,       5760,       5760,     1152,     2304, 0x82a078bc
0,       6912,       6912,     1152,     2304, 0xe583759a
0,       8064,       8064,     1152,     2304, 0xee317a08
0,       9216,       9216,     1152,     2304, 0x27d58ba0
0,      10368,      10368,     1152,     2304, 0xe0808b53
0,      11520,      11520,     1152,     2304, 0xad409144
0,      12672,      12672,     1152,     2304, 0xb3c87cc6
0,      13824,      13824,     1152,     2304, 0xf44a7d64
0,      14976,      14976,     1152,     2304, 0x68538906
0,      16128,      16128,     1152,     2304, 0x2e2a78c2
0,      17280,      17280,     1152,     2304, 0x2c766a09
0,      18432,      18432,     1152,     2304, 0xbd476c22
0,      19584,      19584,     1152,     2304, 0x8312824c
0,      20736,      20736,     1152,     2304, 0xbd1b7139
0,      21888,      21888,     1152,     2304, 0x0764760b
0,      23040,      23040,     1152,     2304, 0xd33682a7
0,      24192,      24192,     1152,     2304, 0x43717d9a
0,      25344,      25344,     1152,     2304, 0x3e7e6d78
0,      26496,      26496,     1152,     2304, 0xc19c7cab
0,      27648,      27648,     1152,     2304, 0xc6277e86
0,      28800,      28800,     1152,     2304, 0xb0506f22
0,      29952,      29952,     1152,     2304, 0xd9ad7318
0,      31104,      31104,     1152,     2304, 0x0a9f792a
0,      32256,      32256,     1152,     2304, 0x18bb7113
0,      33408,      33408,     1152,     2304, 0x2c898234
0,      34560,      34560,     1152,     2304, 0xfd6e6ee4
0,      35712,      35712,     1152,     2304, 0x42927ce4
0,      36864,      36864,     1152,     2304, 0x8c1879d9
0,      38016,      38016,     1152,     2304, 0xe8b77d7d
0,      39168,      39168,     1152,     2304, 0xd10f74a1
0,      40320,      40320,     1152,     2304, 0x4bcb7a9a
0,      41472,      41472,     1152,     2304, 0x86547df2
0,      42624,      42624,     1152,     2304, 0x291e7a87
0,      43776,      43776,     1152,     2304, 0x67c373fe
0,      44928,      44928,     1152,     2304, 0x2909810f
0,      46080,      46080,     1152,     2304, 0x15317df1
0,      47232,      47232,     1152,     2304, 0x2b3f7438
0,      48384,      48384,     1152,     2304, 0xe16c82fd
0,      49536,      49536,     1152,     2304, 0xe9d370f8
0,      50688,      50688,     1152,     2304, 0x67fa7de7
0,      51840,      51840,     1152,     2304, 0xff168a6c
0,      52992,      52992,     1152,     2304, 0x1b877208
0,      54144,      54144,     1152,     2304, 0xfe797739
0,      55296,      55296,     1152,     2304, 0x52df820d
0,      56448,      56448,     1152,     2304, 0x2b9375b3
0,      57600,      57600,     1152,     2304, 0xa4067dec
0,      58752,      58752,     1152,     2304, 0xfe1873c8
0,      59904,      59904,     1152,     2304, 0x14d76cc5
0,      61056,      61056,     1152,     2304, 0x16f57ae2
0,      62208,      62208,     1152,     2304, 0x94d9662d
0,      63360,      63360,     1152,     2304, 0x9c407aa4
0,      64512,      64512,     1152,     2304, 0xb2d2801b
0,      65664,      65664,     1152,     2304, 0x8d37740b
0,      66816,      66816,     1152,     2304, 0x8d3b7389
0,      67968,      67968,     1152,     2304, 0x2b5983a7
0,      69120,      69120,     1152,     2304, 0x5bd26e1f
0,      70272,      70272,     1152,     2304, 0xee1488c8
0,      71424,      71424,     1152,     2304, 0xb0fc9460
0,      72576,      72576,     1152,     2304, 0xd3336664
0,      73728,      73728,     1152,     2304, 0x73598270
0,      74880,      74880,     1152,     2304, 0x7d548515
0,      76032,      76032,     1152,     2304, 0x87b36ff0
0,      77184,      77184,     1152,     2304, 0x59797849
0,      78336,      78336,     1152,     2304, 0x4db8700e
0,      79488,      79488,     1152,     2304, 0x9e367cd9
0,      80640,      80640,     1152,     2304, 0xe8be80ce
0,      81792,      81792,     1152,     2304, 0xddbb7413
0,      82944,      82944,     1152,     2304, 0xebd47c82
0,      84096,      84096,     1152,     2304, 0x700585f3
0,      85248,      85248,     1152,     2304, 0xeb337b3e
0,      86400,      86400,     1152,     2304, 0x2f1992dc
0,      87552,      87552,     1152,     2304, 0x53137a9d
0,      88704,      88704,     1152,     2304, 0xabb46c96
0,      89856,      89856,     1152,     2304, 0x4739758a
0,      91008,      91008,     1152,     2304, 0xe790906b
0,      92160,      92160,     1152,     2304, 0x8f687968
0,      93312,      93312,     1152,     2304, 0xd974883f
0,      94464,      94464,     1152,     2304, 0x37277f84
0,      95616,      95616,     1152,     2304, 0x776874ad
0,      96768,      96768,     1152,     2304, 0x3a786f93
0,      97920,      97920,     1152,     2304, 0xa3088a1c
0,      99072,      99072,     1152,     2304, 0x11f27099
0,     100224,     100224,     1152,     2304, 0xacbe7e3b
0,     101376,     101376,     1152,     2304, 0x05937c7f
0,     102528,     102528,     1152,     2304, 0xd55b7a13
0,     103680,     103680,     1152,     2304, 0x26fb7897
0,     104832,     104832,     1152,     2304, 0xaeb9734f
0,     105984,     105984,     1152,     2304, 0x9b12688e
0,     107136,     107136,     1152,     2304, 0x099d79ce
0,     108288,     108288,     1152,     2304, 0x00698805
0,     109440,     109440,     1152,     2304, 0x1e9584cb
0,     110592,     110592,     1152,     2304, 0xcbd57d2f
0,     111744,     111744,     1152,     2304, 0x8d897cec
0,     112896,     112896,     1152,     2304, 0x63a9662a
0,     114048,     114048,     1152,     2304, 0xa6a68afa
0,     115200,     115200,     1152,     2304, 0x5d4e8530
0,     116352,     116352,     1152,     2304, 0xb99974de
0,     117504,     117504,     1152,     2304, 0xb6b979cc
0,     118656,     118656,     1152,     2304, 0xe0d77dee
0,     119808,     119808,     1152,     2304, 0x91896e1b
0,     120960,     120960,     1152,     2304, 0x5e1e7e20
0,     122112,     122112,     1152,     2304, 0x0ce381db
0,     123264,     123264,     1152,     2304, 0x7b4e85c3
0,     124416,     124416,     1152,     2304, 0x604d78a2
0,     125568,     125568,     1152,     2304, 0x240975fe
0,     126720,     126720,     1152,     2304, 0x247a7bfd
0,     127872,     127872,     1152,     2304, 0x8a1c78a3
0,     129024,     129024,     1152,     2304, 0xd3158877
0,     130176,     130176,     1152,     2304, 0x17637461
0,     131328,     131328,     1152,     2304, 0x45727b11
0,     132480,     132480,     1152,     2304, 0x78e06f22
0,     133632,     133632,     1152,     2304, 0x0b0e8208
0,     134784,     134784,     1152,     2304, 0x38196c85
0,     135936,     135936,     1152,     2304, 0x3a0675d9
0,     137088,     137088,     1152,     2304, 0xf4b47cd1
0,     138240,     138240,     1152,     2304, 0x15f37c8b
0,     139392,     139392,     1152,     2304, 0x304482c7
0,     140544,     140544,     1152,     2304, 0xae807bcc
0,     141696,     141696,     1152,     2304, 0xc8c765f7
0,     142848,     142848,     1152,     2304, 0xb2f884cd
0,     144000,     144000,     1152,     2304, 0x18d19425
0,     145152,     145152,     1152,     2304, 0x24c57bb4
0,     146304,     146304,     1152,     2304, 0x559c7ec7
0,     147456,     147456,     1152,     2304, 0xeb4e7bc1
0,     148608,     148608,     1152,     2304, 0xdfc46ba3
0,     149760,     149760,     1152,     2304, 0x5e73747f
0,     150912,     150912,     1152,     2304, 0xaae07d17
0,     152064,     152064,     1152,     2304, 0x37aa807c
0,     153216,     153216,     1152,     2304, 0x68e18d7e
0,     154368,     154368,     1152,     2304, 0x78468944
0,     155520,     155520,     1152,     2304, 0xbb9a8667
0,     156672,     156672,     1152,     2304, 0x23368a86
0,     157824,     157824,     1152,     2304, 0xb1806670
0,     158976,     158976,     1152,     2304, 0x14666fbe
0,     160128,     160128,     1152,     2304, 0x8e4f7214
0,     161280,     161280,     1152,     2304, 0xf5c38040
0,     162432,     162432,     1152,     2304, 0xdbac78f9
0,     163584,     163584,     1152,     2304, 0x678e7988
0,     164736,     164736,     1152,     2304, 0xb92f8469
0,     165888,     165888,     1152,     2304, 0x69cc77d7
0,     167040,     167040,     1152,     2304, 0x0f20793a
0,     168192,     168192,     1152,     2304, 0x95c587e3
0,     169344,     169344,     1152,     2304, 0x769d8059
0,     170496,     170496,     1152,     2304, 0x4baa7f46
0,     171648,     171648,     1152,     2304, 0xd10a861b
0,     172800,     172800,     1152,     2304, 0xd970748f
0,     173952,     173952,     1152,     2304, 0x2df86b8c
0,     175104,     175104,     1152,     2304, 0x0bca7121
0,     176256,     176256,     1152,     2304, 0x85786e09
0,     177408,     177408,     1152,     2304, 0x80957b3b
0,     178560,     178560,     1152,     2304, 0x3b238e69
0,     179712,     179712,     1152,     2304, 0x174684fe
0,     180864,     180864,     1152,     2304, 0xbf5a7b7c
0,     182016,     182016,     1152,     2304, 0x1f087956
0,     183168,     183168,     1152,     2304, 0x316b87e5
0,     184320,     184320,     1152,     2304, 0xcfc27ed7
0,     185472,     185472,     1152,     2304, 0x5b7c70f5
0,     186624,     186624,     1152,     2304, 0x908d723b
0,     187776,     187776,     1152,     2304, 0x182f7d55
0,     188928,     188928,     1152,     2304, 0x3f9e751c
0,     190080,     190080,     1152,     2304, 0x8d436208
0,     191232,     191232,     1152,     2304, 0xe1ac8536
0,     192384,     192384,     1152,     2304, 0x8dab81ea
0,     193536,     193536,     1152,     2304, 0x78db808b
0,     194688,     194688,     1152,     2304, 0x8bc58316
0,     195840,     195840,     1152,     2304, 0x66d77a20
0,     196992,     196992,     1152,     2304, 0x34708449
0,     198144,     198144,     1152,     2304, 0x653d7926
0,     199296,     199296,     1152,     2304, 0x4c087d4e
0,     200448,     200448,     1152,     2304, 0xe62c80f2
0,     201600,     201600,     1152,     2304, 0xf932796e
0,     202752,     202752,     1152,     2304, 0x4d027068
0,     203904,     203904,     1152,     2304, 0xb766817c
0,     205056,     205056,     1152,     2304, 0x05d078f6
0,     206208,     206208,     1152,     2304, 0xfe0778ab
0,     207360,     207360,     1152,     2304, 0xcc728533
0,     208512,     208512,     1152,     2304, 0xa47e7522
0,     209664,     209664,     1152,     2304, 0x1ea78f03
0,     210816,     210816,     1152,     2304, 0x64a46fa2
0,     211968,     211968,     1152,     2304, 0xc1617a51
0,     213120,     213120,     1152,     2304, 0xe33281d2
0,     214272,     214272,     1152,     2304, 0x2b91807e
0,     215424,     215424,     1152,     2304, 0x78a46d2c
0,     216576,     216576,     1152,     2304, 0x5fec7df6
0,     217728,     217728,     1152,     2304, 0xb4317cb9
0,     218880,     218880,     1152,     2304, 0x1367802a
0,     220032,     220032,     1152,     2304, 0x180a8c8b
0,     221184,     221184,     1152,     2304, 0x1b59753c
0,     222336,     222336,     1152,     2304, 0xc1ae75f4
0,     223488,     223488,     1152,     2304, 0x73067581
0,     224640,     224640,     1152,     2304, 0x573c8626
0,     225792,     225792,     1152,     2304, 0xfde37797
0,     226944,     226944,     1152,     2304, 0x67bd5d40
0,     228096,     228096,     1152,     2304, 0xee828d7c
0,     229248,     229248,     1152,     2304, 0x20c38a47
0,     230400,     230400,     1152,     2304, 0x7e5681f9
0,     231552,     231552,     1152,     2304, 0x1fd085af
0,     232704,     232704,     1152,     2304, 0xd6027671
0,     233856,     233856,     1152,     2304, 0x80a46bcd
0,     235008,     235008,     1152,     2304, 0xee3d860e
0,     236160,     236160,     1152,     2304, 0xd87e7897
0,     237312,     237312,     1152,     2304, 0x38a891d9
0,     238464,     238464,     1152,     2304, 0xa6a780c8
0,     239616,     239616,     1152,     2304, 0xe7b573a0
0,     240768,     240768,     1152,     2304, 0x97586fa2
0,     241920,     241920,     1152,     2304, 0x3a907b60
0,     243072,     243072,     1152,     2304, 0xc7a27352
0,     244224,     244224,     1152,     2304, 0x12797cd1
0,     245376,     245376,     1152,     2304, 0x8bd581cd
0,     246528,     246528,     1152,     2304, 0x0d528198
0,     247680,     247680,     1152,     2304, 0xca608222
0,     248832,     248832,     1152,     2304, 0xc0827f1a
0,     249984,     249984,     1152,     2304, 0x82bf7375
0,     251136,     251136,     1152,     2304, 0x1ad0823b
0,     252288,     252288,     1152,     2304, 0xebdb6f03
0,     253440,     253440,     1152,     2304, 0x349a6963
0,     254592,     254592,     1152,     2304, 0x81c48856
0,     255744,     255744,     1152,     2304, 0x352a708f
0,     256896,     256896,     1152,     2304, 0x925b8d08
0,     258048,     258048,     1152,     2304, 0x9c17744f
0,     259200,     259200,     1152,     2304, 0x1212798c
0,     260352,     260352,     1152,     2304, 0xc7029048
0,     261504,     261504,     1152,     2304, 0x15227df1
0,     262656,     262656,     1152,     2304, 0xea497baf
0,     263808,     263808,     1152,     2304, 0xc8ef7cd7
0,     264960,     264960,     1152,     2304, 0xf5688102
0,     266112,     266112,     1152,     2304, 0xc72e7693
0,     267264,     267264,     1152,     2304, 0xc8d8732f
0,     268416,     268416,     1152,     2304, 0xacb47538
0,     269568,     269568,     1152,     2304, 0x25837899
0,     270720,     270720,     1152,     2304, 0xd7108930
0,     271872,     271872,     1152,     2304, 0xb8ab660e
0,     273024,     273024,     1152,     2304, 0xc69582a5
0,     274176,     274176,     1152,     2304, 0x26908060
0,     275328,     275328,     1152,     2304, 0x30428787
0,     276480,     276480,     1152,     2304, 0x98ec64c0
0,     277632,     277632,     1152,     2304, 0xec9d708d
0,     278784,     278784,     1152,     2304, 0xa15c7c4a
0,     279936,     279936,     1152,     2304, 0x48b87ee1
0,     281088,     281088,     1152,     2304, 0xca4a6f6d
0,     282240,     282240,     1152,     2304, 0x46778b57
0,     283392,     283392,     1152,     2304, 0x39798023
0,     284544,     284544,     1152,     2304, 0x9c807618
0,     285696,     285696,     1152,     2304, 0x3eee8197
0,     286848,     286848,     1152,     2304, 0x6c3d7c47
0,     288000,     288000,     1152,     2304, 0x24dc825e
0,     289152,     289152,     1152,     2304, 0x83b07c6d
0,     290304,     290304,     1152,     2304, 0xafef7a89
0,     291456,     291456,     1152,     2304, 0x3d808442
0,     292608,     292608,     1152,     2304, 0x8d4472a9
0,     293760,     293760,     1152,     2304, 0xb7b9805b
0,     294912,     294912,     1152,     2304, 0xdeff7701
0,     296064,     296064,     1152,     2304, 0x91ea7c39
0,     297216,     297216,     1152,     2304, 0x18fe69ab
0,     298368,     298368,     1152,     2304, 0xfc8e7055
0,     299520,     299520,     1152,     2304, 0x825e788c
0,     300672,     300672,     1152,     2304, 0xe49d808f
0,     301824,     301824,     1152,     2304, 0xd65e766c
0,     302976,     302976,     1152,     2304, 0x6e397dc2
0,     304128,     304128,     1152,     2304, 0x9a9582be
0,     305280,     305280,     1152,     2304, 0x88b9799e
0,     306432,     306432,     1152,     2304, 0x995d85dc
0,     307584,     307584,     1152,     2304, 0xca9d75ea
0,     308736,     308736,     1152,     2304, 0xf19577a4
0,     309888,     309888,     1152,     2304, 0x8f5c9670
0,     311040,     311040,     1152,     2304, 0x615f836c
0,     312192,     312192,     1152,     2304, 0x925d6d19
0,     313344,     313344,     1152,     2304, 0xc5fb81ea
0,     314496,     314496,     1152,     2304, 0x78557165
0,     315648,     315648,     1152,     2304, 0xc8437bbe
0,     316800,     316800,     1152,     2304, 0xceae842f
0,     317952,     317952,     1152,     2304, 0x02bc854d
0,     319104,     319104,     1152,     2304, 0x784a7013
0,     320256,     320256,     1152,     2304, 0x3e868596
0,     321408,     321408,     1152,     2304, 0xcf828822
0,     322560,     322560,     1152,     2304, 0x30c89763
0,     323712,     323712,     1152,     2304, 0x7c9f7b97
0,     324864,     324864,     1152,     2304, 0x5b7888e0
0,     326016,     326016,     1152,     2304, 0x013b8597
0,     327168,     327168,     1152,     2304, 0x28e87c33
0,     328320,     328320,     1152,     2304, 0x09dc8cc1
0,     329472,     329472,     1152,     2304, 0x44a57909
0,     330624,     330624,     1152,     2304, 0x4bdb70ca
0,     331776,     331776,     1152,     2304, 0x96047f8d
0,     332928,     332928,     1152,     2304, 0x4cd4763f
0,     334080,     334080,     1152,     2304, 0x310a7445
0,     335232,     335232,     1152,     2304, 0x641b70ae
0,     336384,     336384,     1152,     2304, 0x5a8888d5
0,     337536,     337536,     1152,     2304, 0xbe9c6884
0,     338688,     338688,     1152,     2304, 0xe9727f04
0,     339840,     339840,     1152,     2304, 0xeee17901
0,     340992,     340992,     1152,     2304, 0x8c678c18
0,     342144,     342144,     1152,     2304, 0xb53e80b4
0,     343296,     343296,     1152,     2304, 0x2b7687e2
0,     344448,     344448,     1152,     2304, 0xc3a77da4
0,     345600,     345600,     1152,     2304, 0x6cfc685e
0,     346752,     346752,     1152,     2304, 0xeab787bd
0,     347904,     347904,     1152,     2304, 0xf58589a2
0,     349056,     349056,     1152,     2304, 0xe6cd799b
0,     350208,     350208,     1152,     2304, 0xb9446ea7
0,     351360,     351360,     1152,     2304, 0x873e737e
0,     352512,     352512,     1152,     2304, 0xf95375dd
0,     353664,     353664,     1152,     2304, 0xb6157e3c
0,     354816,     354816,     1152,     2304, 0xda3e7860
0,     355968,     355968,     1152,     2304, 0x2bf9773f
0,     357120,     357120,     1152,     2304, 0x04266e28
0,     358272,     358272,     1152,     2304, 0x2d008543
0,     359424,     359424,     1152,     2304, 0x16ce7ead
0,     360576,     360576,     1152,     2304, 0xe3347d64
0,     361728,     361728,     1152,     2304, 0x38e09391
0,     362880,     362880,     1152,     2304, 0x53896e46
0,     364032,     364032,     1152,     2304, 0x8c618237
0,     365184,     365184,     1152,     2304, 0xb4a581d0
0,     366336,     366336,     1152,     2304, 0x0bda78b3
0,     367488,     367488,     1152,     2304, 0xa9e273b6
0,     368640,     368640,     1152,     2304, 0xb5c2775b
0,     369792,     369792,     1152,     2304, 0x1f3b7e46
0,     370944,     370944,     1152,     2304, 0xbb3c8661
0,     372096,     372096,     1152,     2304, 0xe3498486
0,     373248,     373248,     1152,     2304, 0x0b0282e5
0,     374400,     374400,     1152,     2304, 0x3b4797b0
0,     375552,     375552,     1152,     2304, 0x20f071ac
0,     376704,     376704,     1152,     2304, 0xee787fee
0,     377856,     377856,     1152,     2304, 0x70627f17
0,     379008,     379008,     1152,     2304, 0xcad870bf
0,     380160,     380160,     1152,     2304, 0x6ad37111
0,     381312,     381312,     1152,     2304, 0x30666df9
0,     382464,     382464,     1152,     2304, 0x2d6474cd
0,     383616,     383616,     1152,     2304, 0x94257821
0,     384768,     384768,     1152,     2304, 0xe73482b8
0,     385920,     385920,     1152,     2304, 0x3f796a8d
0,     387072,     387072,     1152,     2304, 0x933f7af2
0,     388224,     388224,     1152,     2304, 0x8e368d54
0,     389376,     389376,     1152,     2304, 0x00f173da
0,     390528,     390528,     1152,     2304, 0x3f0c7303
0,     391680,     391680,     1152,     2304, 0x8a727a06
0,     392832,     392832,     1152,     2304, 0x6fcc81af
0,     393984,     393984,     1152,     2304, 0x17f48d81
0,     395136,     395136,     1152,     2304, 0xf5c68173
0,     396288,     396288,     1152,     2304, 0x631a8289
0,     397440,     397440,     1152,     2304, 0x250c7c25
0,     398592,     398592,     1152,     2304, 0x18f46a72
0,     399744,     399744,     1152,     2304, 0x8a217e9c
0,     400896,     400896,     1152,     2304, 0x7e838017
0,     402048,     402048,     1152,     2304, 0xf85d7ef3
0,     403200,     403200,     1152,     2304, 0xc62f729e
0,     404352,     404352,     1152,     2304, 0xad2f8510
0,     405504,     405504,     1152,     2304, 0x05ba7900
0,     406656,     406656,     1152,     2304, 0xd8e474f5
0,     407808,     407808,     1152,     2304, 0x4d458ccf
0,     408960,     408960,     1152,     2304, 0xe7ad71e3
0,     410112,     410112,     1152,     2304, 0x599d6001
0,     411264,     411264,     1152,     2304, 0xaf2b8747
0,     412416,     412416,     1152,     2304, 0xb75b7aa3
0,     413568,     413568,     1152,     2304, 0x562a7467
0,     414720,     414720,     1152,     2304, 0x12e68d93
0,     415872,     415872,     1152,     2304, 0x9f5474aa
0,     417024,     417024,     1152,     2304, 0xf6a26c7a
0,     418176,     418176,     1152,     2304, 0x6f5e7d69
0,     419328,     419328,     1152,     2304, 0x3f2081c7
0,     420480,     420480,     1152,     2304, 0x642b8299
0,     421632,     421632,     1152,     2304, 0x15617dfd
0,     422784,     422784,     1152,     2304, 0x45d77d83
0,     423936,     423936,     1152,     2304, 0x7ed07a74
0,     425088,     425088,     1152,     2304, 0x763a76d0
0,     426240,     426240,     1152,     2304, 0x4b8c86cf
0,     427392,     427392,     1152,     2304, 0xf8046414
0,     428544,     428544,     1152,     2304, 0x62917d91
0,     429696,     429696,     1152,     2304, 0x6bad7ee7
0,     430848,     430848,     1152,     2304, 0x36887bf6
0,     432000,     432000,     1152,     2304, 0x91a36060
0,     433152,     433152,     1152,     2304, 0x38699272
0,     434304,     434304,     1152,     2304, 0x37b974bc
0,     435456,     435456,     1152,     2304, 0xba487e2d
0,     436608,     436608,     1152,     2304, 0x8305732b
0,     437760,     437760,     1152,     2304, 0xd13c7ac8
0,     438912,     438912,     1152,     2304, 0xad8e7e98
0,     440064,     440064,     1152,     2304, 0xa1627a12
0,     441216,     441216,     1152,     2304, 0xe37e6ed2
0,     442368,     442368,     1152,     2304, 0xadb280e3
0,     443520,     443520,     1152,     2304, 0xb30b7c21
0,     444672,     444672,     1152,     2304, 0x5e6e7e2d
0,     445824,     445824,     1152,     2304, 0xbe5f6ea8
0,     446976,     446976,     1152,     2304, 0x42038588
0,     448128,     448128,     1152,     2304, 0xd1b46ab7
0,     449280,     449280,     1152,     2304, 0x8a679395
0,     450432,     450432,     1152,     2304, 0x37097566
0,     451584,     451584,     1152,     2304, 0x6f4b742a
0,     452736,     452736,     1152,     2304, 0x564382f4
0,     453888,     453888,     1152,     2304, 0x52db7148
0,     455040,     455040,     1152,     2304, 0x78b08dcf
0,     456192,     456192,     1152,     2304, 0x7fad72b4
0,     457344,     457344,     1152,     2304, 0x5eb98b5b
0,     458496,     458496,     1152,     2304, 0x55076bd1
0,     459648,     459648,     1152,     2304, 0x694b750f
0,     460800,     460800,     1152,     2304, 0x40ca7f97
0,     461952,     461952,     1152,     2304, 0xb61c847e
0,     463104,     463104,     1152,     2304, 0x16937da6
0,     464256,     464256,     1152,     2304, 0xbb7575c1
0,     465408,     465408,     1152,     2304, 0xc72c62f9
0,     466560,     466560,     1152,     2304, 0xdf5e8aa1
0,     467712,     467712,     1152,     2304, 0x114f755e
0,     468864,     468864,     1152,     2304, 0x3e407926
0,     470016,     470016,     1152,     2304, 0xbdd5711f
0,     471168,     471168,     1152,     2304, 0x19636fe2
0,     472320,     472320,     1152,     2304, 0xb3a67c55
0,     473472,     473472,     1152,     2304, 0xfe1e8ae1
0,     474624,     474624,     1152,     2304, 0x88346f23
0,     475776,     475776,     1152,     2304, 0xe4d8874c
0,     476928,     476928,     1152,     2304, 0x63756a5b
0,     478080,     478080,     1152,     2304, 0x79667c15
0,     479232,     479232,     1152,     2304, 0xd53a7a9e
0,     480384,     480384,     1152,     2304, 0xcfe37b23
0,     481536,     481536,     1152,     2304, 0xbe2080db
0,     482688,     482688,     1152,     2304, 0xcd79711f
0,     483840,     483840,     1152,     2304, 0xacf875d9
0,     484992,     484992,     1152,     2304, 0xb94271f8
0,     486144,     486144,     1152,     2304, 0xdfed7cfe
0,     487296,     487296,     1152,     2304, 0xb3aa91a1
0,     488448,     488448,     1152,     2304, 0x9ac784cf
0,     489600,     489600,     1152,     2304, 0x48166b54
0,     490752,     490752,     1152,     2304, 0x45687711
0,     491904,     491904,     1152,     2304, 0x58077601
0,     493056,     493056,     1152,     2304, 0x99df6bdd
0,     494208,     494208,     1152,     2304, 0x1b978729
0,     495360,     495360,     1152,     2304, 0x5176705d
0,     496512,     496512,     1152,     2304, 0xac8881f8
0,     497664,     497664,     1152,     2304, 0xb2177024
0,     498816,     498816,     1152,     2304, 0x4b4f799e
0,     499968,     499968,     1152,     2304, 0x4c0c8e55
0,     501120,     501120,     1152,     2304, 0xf1206f79
0,     502272,     502272,     1152,     2304, 0xa4e76f42
0,     503424,     503424,     1152,     2304, 0x61cf82f2
0,     504576,     504576,     1152,     2304, 0x221f7731
0,     505728,     505728,     1152,     2304, 0x8aeb738c
0,     506880,     506880,     1152,     2304, 0x680e626b
0,     508032,     508032,     1152,     2304, 0x976f7c56
0,     509184,     509184,     1152,     2304, 0x80307a35
0,     510336,     510336,     1152,     2304, 0x734c6861
0,     511488,     511488,     1152,     2304, 0x378966fc
0,     512640,     512640,     1152,     2304, 0x92d082a3
0,     513792,     513792,     1152,     2304, 0x90bd841c
0,     514944,     514944,     1152,     2304, 0x14ae8bb5
0,     516096,     516096,     1152,     2304, 0x71d57062
0,     517248,     517248,     1152,     2304, 0x8cac85cb
0,     518400,     518400,     1152,     2304, 0x52a57a5b
0,     519552,     519552,     1152,     2304, 0x205f8461
0,     520704,     520704,     1152,     2304, 0x43928429
0,     521856,     521856,     1152,     2304, 0x15547c48
0,     523008,     523008,     1152,     2304, 0x84d37772
0,     524160,     524160,     1152,     2304, 0x00ad7a1b
0,     525312,     525312,     1152,     2304, 0xf9767078
0,     526464,     526464,     1152,     2304, 0x18867ae9
0,     527616,     527616,     1152,     2304, 0x034678af
0,     528768,     528768,     1152,     2304, 0xb70a7d1a
0,     529920,     529920,     1152,     2304, 0x646d86c7
0,     531072,     531072,     1152,     2304, 0xf86e7146
0,     532224,     532224,     1152,     2304, 0xc8bc7549
0,     533376,     533376,     1152,     2304, 0x80f27f26
0,     534528,     534528,     1152,     2304, 0x6be5815b
0,     535680,     535680,     1152,     2304, 0xfb73846d
0,     536832,     536832,     1152,     2304, 0x39b97f9b
0,     537984,     537984,     1152,     2304, 0xdf7682a1
0,     539136,     539136,     1152,     2304, 0xc6876c23
0,     540288,     540288,     1152,     2304, 0x7a488cb3
0,     541440,     541440,     1152,     2304, 0xe0917640
0,     542592,     542592,     1152,     2304, 0xd83b8675
0,     543744,     543744,     1152,     2304, 0x850e688b
0,     544896,     544896,     1152,     2304, 0x169e6dac
0,     546048,     546048,     1152,     2304, 0xaa5370a9
0,     547200,     547200,     1152,     2304, 0x2c2c78a9
0,     548352,     548352,     1152,     2304, 0x8f1b7277
0,     549504,     549504,     1152,     2304, 0x5c4a78c3
0,     550656,     550656,     1152,     2304, 0x44187c1a
0,     551808,     551808,     1152,     2304, 0xebbf856a
0,     552960,     552960,     1152,     2304, 0x30d37f5b
0,     554112,     554112,     1152,     2304, 0x769583d5
0,     555264,     555264,     1152,     2304, 0x93887151
0,     556416,     556416,     1152,     2304, 0xbc3e79c2
0,     557568,     557568,     1152,     2304, 0x9a3b64f7
0,     558720,     558720,     1152,     2304, 0x7f9579ba
0,     559872,     559872,     1152,     2304, 0xdda87c6a
0,     561024,     561024,     1152,     2304, 0x83e87e13
0,     562176,     562176,     1152,     2304, 0x79be87c3
0,     563328,     563328,     1152,     2304, 0xa9d77075
0,     564480,     564480,     1152,     2304, 0x0e906e85
0,     565632,     565632,     1152,     2304, 0xfce478a1
0,     566784,     566784,     1152,     2304, 0xbeda8006
0,     567936,     567936,     1152,     2304, 0x85db8209
0,     569088,     569088,     1152,     2304, 0xdce175d6
0,     570240,     570240,     1152,     2304, 0xf6f07c16
0,     571392,     571392,     1152,     2304, 0x7c3574a2
0,     572544,     572544,     1152,     2304, 0xd9f37968
0,     573696,     573696,     1152,     2304, 0x83166c1a
0,     574848,     574848,     1152,     2304, 0xfa827302
0,     576000,     576000,     1152,     2304, 0x038f85ef
0,     577152,     577152,     1152,     2304, 0xde3865d5
0,     578304,     578304,     1152,     2304, 0x80a068bd
0,     579456,     579456,     1152,     2304, 0xf3027787
0,     580608,     580608,     1152,     2304, 0xc460760d
0,     581760,     581760,     1152,     2304, 0xa0ea7a4c
0,     582912,     582912,     1152,     2304, 0xa28589cb
0,     584064,     584064,     1152,     2304, 0x0b4e7403
0,     585216,     585216,     1152,     2304, 0x299e75c5
0,     586368,     586368,     1152,     2304, 0x1c2e7b28
0,     587520,     587520,     1152,     2304, 0xebb17de7
0,     588672,     588672,     1152,     2304, 0xd51f7ab8
0,     589824,     589824,     1152,     2304, 0x185a8b62
0,     590976,     590976,     1152,     2304, 0x6f297c45
0,     592128,     592128,     1152,     2304, 0xc89c7d98
0,     593280,     593280,     1152,     2304, 0xe1467f26
0,     594432,     594432,     1152,     2304, 0x8e997b42
0,     595584,     595584,     1152,     2304, 0x3a6a7d53
0,     596736,     596736,     1152,     2304, 0x89d17f89
0,     597888,     597888,     1152,     2304, 0x74bc855c
0,     599040,     599040,     1152,     2304, 0x38dd72c3
0,     600192,     600192,     1152,     2304, 0xbed77c51
0,     601344,     601344,     1152,     2304, 0x8f4173a3
0,     602496,     602496,     1152,     2304, 0xb1497ee3
0,     603648,     603648,     1152,     2304, 0x1baa9175
0,     604800,     604800,     1152,     2304, 0xa1b16cf6
0,     605952,     605952,     1152,     2304, 0xd4b78a87
0,     607104,     607104,     1152,     2304, 0x54378164
0,     608256,     608256,     1152,     2304, 0x1a617285
0,     609408,     609408,     1152,     2304, 0x71346def
0,     610560,     610560,     1152,     2304, 0x74548213
0,     611712,     611712,     1152,     2304, 0x2dcd6fd8
0,     612864,     612864,     1152,     2304, 0x15e07b7e
0,     614016,     614016,     1152,     2304, 0xc3da80d4
0,     615168,     615168,     1152,     2304, 0xae2c6c8e
0,     616320,     616320,     1152,     2304, 0x6c2f7e13
0,     617472,     617472,     1152,     2304, 0x6d097742
0,     618624,     618624,     1152,     2304, 0xf88d7cc9
0,     619776,     619776,     1152,     2304, 0x09ee816c
0,     620928,     620928,     1152,     2304, 0xce719d11
0,     622080,     622080,     1152,     2304, 0x2e086f6f
0,     623232,     623232,     1152,     2304, 0x704f7de5
0,     624384,     624384,     1152,     2304, 0xa90199b6
0,     625536,     625536,     1152,     2304, 0x622582f1
0,     626688,     626688,     1152,     2304, 0xe615696a
0,     627840,     627840,     1152,     2304, 0x4ed97fcb
0,     628992,     628992,     1152,     2304, 0xe2c1788b
0,     630144,     630144,     1152,     2304, 0x83927620
0,     631296,     631296,     1152,     2304, 0xb4337cbd
0,     632448,     632448,     1152,     2304, 0x73a084d3
0,     633600,     633600,     1152,     2304, 0xecba7a82
0,     634752,     634752,     1152,     2304, 0xbff46fa3
0,     635904,     635904,     1152,     2304, 0x472676bb
0,     637056,     637056,     1152,     2304, 0xe1278f74
0,     638208,     638208,     1152,     2304, 0xc2de7c91
0,     639360,     639360,     1152,     2304, 0xac889151
0,     640512,     640512,     1152,     2304, 0xb68b7e98
0,     641664,     641664,     1152,     2304, 0x30758f0e
0,     642816,     642816,     1152,     2304, 0xc0448216
0,     643968,     643968,     1152,     2304, 0x64217a00
0,     645120,     645120,     1152,     2304, 0x0a368535
0,     646272,     646272,     1152,     2304, 0x3d5b9120
0,     647424,     647424,     1152,     2304, 0xda946cb0
0,     648576,     648576,     1152,     2304, 0xd3db8297
0,     649728,     649728,     1152,     2304, 0xa60e72c5
0,     650880,     650880,     1152,     2304, 0x3f038385
0,     652032,     652032,     1152,     2304, 0x517d7cfd
0,     653184,     653184,     1152,     2304, 0x50137e10
0,     654336,     654336,     1152,     2304, 0x2f387c87
0,     655488,     655488,     1152,     2304, 0x01d38785
0,     656640,     656640,     1152,     2304, 0x396576bf
0,     657792,     657792,     1152,     2304, 0x48c77764
0,     658944,     658944,     1152,     2304, 0x3328819d
0,     660096,     660096,     1152,     2304, 0x89097106
0,     661248,     661248,     1152,     2304, 0x142d8106
0,     662400,     662400,     1152,     2304, 0x20f8729d
0,     663552,     663552,     1152,     2304, 0xab2e83ea
0,     664704,     664704,     1152,     2304, 0xdab57a81
0,     665856,     665856,     1152,     2304, 0x7f417747
0,     667008,     667008,     1152,     2304, 0x8c986cc4
0,     668160,     668160,     1152,     2304, 0x56017eb7
0,     669312,     669312,     1152,     2304, 0xd7856fc9
0,     670464,     670464,     1152,     2304, 0x68258d8a
0,     671616,     671616,     1152,     2304, 0x04307c78
0,     672768,     672768,     1152,     2304, 0x892c6f41
0,     673920,     673920,     1152,     2304, 0x86048d9b
0,     675072,     675072,     1152,     2304, 0x92f9731b
0,     676224,     676224,     1152,     2304, 0xeae685c3
0,     677376,     677376,     1152,     2304, 0xbdba808b
0,     678528,     678528,     1152,     2304, 0x0b4e848b
0,     679680,     679680,     1152,     2304, 0x1ccf6eba
0,     680832,     680832,     1152,     2304, 0x5a3d7644
0,     681984,     681984,     1152,     2304, 0xe3aa8212
0,     683136,     683136,     1152,     2304, 0x272e8494
0,     684288,     684288,     1152,     2304, 0x79497ed9
0,     685440,     685440,     1152,     2304, 0x19279696
0,     686592,     686592,     1152,     2304, 0xa05a7893
0,     687744,     687744,     1152,     2304, 0xb321732b
0,     688896,     688896,     1152,     2304, 0x05fe6a30
0,     690048,     690048,     1152,     2304, 0xccce7edb
0,     691200,     691200,     1152,     2304, 0xb6f7804b
0,     692352,     692352,     1152,     2304, 0x73457c1c
0,     693504,     693504,     1152,     2304, 0xa3677c2a
0,     694656,     694656,     1152,     2304, 0x733b81d6
0,     695808,     695808,     1152,     2304, 0xf3e882dc
0,     696960,     696960,     1152,     2304, 0xbf318360
0,     698112,     698112,     1152,     2304, 0x745c8f97
0,     699264,     699264,     1152,     2304, 0x2d6e776d
0,     700416,     700416,     1152,     2304, 0xed507733
0,     701568,     701568,     1152,     2304, 0x79366e90
0,     702720,     702720,     1152,     2304, 0x7762838b
0,     703872,     703872,     1152,     2304, 0x321e62cf
